HIERARCHY
ROOT Pelvis
{
	OFFSET 0.000000 0.000000 0.000000
	CHANNELS 6 Xposition Yposition Zposition Xrotation Yrotation Zrotation
	JOINT LeftUpLeg_virtual
	{
		OFFSET 0.000000 0.000000 0.000000
		CHANNELS 3 Xrotation Yrotation Zrotation
		JOINT LeftUpLeg
		{
			OFFSET 18.735201 -5.666702 -4.541200
			CHANNELS 3 Xrotation Yrotation Zrotation
			JOINT LeftLeg
			{
				OFFSET -0.021200 -31.938179 0.493100
				CHANNELS 3 Xrotation Yrotation Zrotation
				JOINT LeftFoot
				{
					OFFSET 0.021200 -31.938179 -4.336299
					CHANNELS 3 Xrotation Yrotation Zrotation
					JOINT LeftToeBase
					{
						OFFSET 0.943001 -26.722000 15.023500
						CHANNELS 3 Xrotation Yrotation Zrotation
						End Site
						{
							OFFSET 0 0 0
						}
					}
				}
			}
		}
	}
	JOINT RightUpLeg_virtual
	{
		OFFSET 0.000000 0.000000 0.000000
		CHANNELS 3 Xrotation Yrotation Zrotation
		JOINT RightUpLeg
		{
			OFFSET -18.735201 -5.666702 -4.541200
			CHANNELS 3 Xrotation Yrotation Zrotation
			JOINT RightLeg
			{
				OFFSET 0.018946 -31.938133 0.493100
				CHANNELS 3 Xrotation Yrotation Zrotation
				JOINT RightFoot
				{
					OFFSET -0.018946 -31.938126 -4.336299
					CHANNELS 3 Xrotation Yrotation Zrotation
					JOINT RightToeBase
					{
						OFFSET -0.943001 -26.722004 15.023500
						CHANNELS 3 Xrotation Yrotation Zrotation
						End Site
						{
							OFFSET 0 0 0
						}
					}
				}
			}
		}
	}
	JOINT Hips_virtual
	{
		OFFSET 0.000000 0.000000 0.000000
		CHANNELS 3 Xrotation Yrotation Zrotation
		JOINT Hips
		{
			OFFSET -0.000000 -0.000000 -0.000000
			CHANNELS 3 Xrotation Yrotation Zrotation
			JOINT Spine
			{
				OFFSET 0.000000 10.199997 -0.299500
				CHANNELS 3 Xrotation Yrotation Zrotation
				JOINT Spine1
				{
					OFFSET 0.000000 11.900002 -1.516600
					CHANNELS 3 Xrotation Yrotation Zrotation
					JOINT Spine2
					{
						OFFSET 0.000000 13.600006 -2.842500
						CHANNELS 3 Xrotation Yrotation Zrotation
						JOINT Neck_virtual
						{
							OFFSET 0.000000 0.000000 0.000000
							CHANNELS 3 Xrotation Yrotation Zrotation
							JOINT Neck
							{
								OFFSET 0.000000 9.624100 -2.890100
								CHANNELS 3 Xrotation Yrotation Zrotation
								JOINT Head
								{
									OFFSET 0.000000 14.068802 -1.351900
									CHANNELS 3 Xrotation Yrotation Zrotation
									End Site
									{
										OFFSET 0 0 0
									}
								}
							}
						}
						JOINT LeftShoulder_virtual
						{
							OFFSET 0.000000 0.000000 0.000000
							CHANNELS 3 Xrotation Yrotation Zrotation
							JOINT LeftShoulder
							{
								OFFSET 15.263000 10.923401 -0.547700
								CHANNELS 3 Xrotation Yrotation Zrotation
								JOINT LeftArm
								{
									OFFSET 25.438599 -2.830597 -13.032500
									CHANNELS 3 Xrotation Yrotation Zrotation
									JOINT LeftForeArm
									{
										OFFSET 29.960503 0.000000 0.000000
										CHANNELS 3 Xrotation Yrotation Zrotation
										JOINT LeftHand
										{
											OFFSET 27.849251 0.000000 0.000000
											CHANNELS 3 Xrotation Yrotation Zrotation
											End Site
											{
												OFFSET 0 0 0
											}
										}
									}
								}
							}
						}
						JOINT RightShoulder_virtual
						{
							OFFSET 0.000000 0.000000 0.000000
							CHANNELS 3 Xrotation Yrotation Zrotation
							JOINT RightShoulder
							{
								OFFSET -15.263000 10.923401 -0.547700
								CHANNELS 3 Xrotation Yrotation Zrotation
								JOINT RightArm
								{
									OFFSET -25.438599 -2.830597 -13.032500
									CHANNELS 3 Xrotation Yrotation Zrotation
									JOINT RightForeArm
									{
										OFFSET -29.960503 0.000000 0.000000
										CHANNELS 3 Xrotation Yrotation Zrotation
										JOINT RightHand
										{
											OFFSET -27.849251 0.000000 0.000000
											CHANNELS 3 Xrotation Yrotation Zrotation
											End Site
											{
												OFFSET 0 0 0
											}
										}
									}
								}
							}
						}
					}
				}
			}
		}
	}
}
MOTION
Frames: 11
Frame Time: 0.03333333
-8.239670 131.987732 -10.677948 0.000000 0.000000 0.000000 -24.190361 -32.853907 -0.564852 -78.212162 -3.577773 25.352820 123.996497 -16.173009 1.723105 42.463723 -21.359149 -24.058696 0.000000 0.000000 0.000000 -20.318341 2.480541 -32.558501 -59.160954 12.146097 -41.401550 118.126346 23.716215 -1.024894 22.566431 20.626896 42.114031 0.000000 0.000000 0.000000 4.754894 -3.571359 0.039709 10.566560 0.143441 -7.997801 25.375054 5.746505 2.513828 12.868844 2.680301 2.447099 0.000000 0.000000 0.000000 6.141641 1.182393 0.972709 2.593935 0.897393 0.814621 0.000000 0.000000 0.000000 6.169150 2.112873 1.571666 0.155288 -3.073968 8.490268 -26.244076 18.722057 -2.857457 0.466731 5.385400 4.196303 0.000000 0.000000 0.000000 6.285362 -1.492799 -2.785148 4.019405 2.685529 -20.302263 -22.156833 -0.827995 -8.672664 -3.387620 26.956841 -8.429883 0.000000 0.000000 0.000000 
-7.828554 131.362854 -10.007198 0.000000 0.000000 0.000000 -24.724470 -30.826898 0.263347 -78.641739 -3.623821 25.689404 123.933222 -15.079004 1.868601 43.475052 -20.530186 -22.348992 0.000000 0.000000 0.000000 -19.946162 0.099211 -31.608285 -58.434522 11.135157 -40.939553 116.987945 23.627564 -0.725211 22.018010 20.234652 42.055083 0.000000 0.000000 0.000000 4.953448 -3.183664 0.065841 10.172373 0.248593 -7.633859 25.109572 5.852409 2.294425 12.706433 2.757334 2.336796 0.000000 0.000000 0.000000 6.152333 1.241121 1.011793 2.574235 0.866157 0.823846 0.000000 0.000000 0.000000 6.126020 2.170608 1.582631 0.049673 -3.171575 8.350899 -25.971789 19.690858 -1.468262 0.552646 6.429074 4.678978 0.000000 0.000000 0.000000 6.387382 -1.349644 -2.776099 4.058474 2.913150 -20.173592 -21.168950 -1.621438 -9.509202 -3.011627 25.285423 -8.891827 0.000000 0.000000 0.000000 
-7.578987 130.257507 -9.233585 0.000000 0.000000 0.000000 -24.533700 -28.427746 1.476654 -78.427661 -3.588741 26.094885 123.103696 -13.990292 1.820748 44.091354 -19.518968 -20.830142 0.000000 0.000000 0.000000 -18.952289 -1.553656 -29.891677 -57.296947 9.984356 -40.093398 115.044838 23.586136 -0.322976 21.056568 19.746092 42.014631 0.000000 0.000000 0.000000 5.088010 -2.806665 0.135643 9.534005 0.528615 -7.259353 24.720389 5.914087 2.019396 12.457346 2.819062 2.197023 0.000000 0.000000 0.000000 6.162965 1.306304 1.050631 2.544085 0.844754 0.827490 0.000000 0.000000 0.000000 6.010664 2.231060 1.614492 -0.096541 -3.135608 8.202276 -25.622215 20.608004 -0.214342 0.627762 7.256430 5.156237 0.000000 0.000000 0.000000 6.436092 -1.212407 -2.754221 4.056741 3.134008 -19.902761 -20.199057 -2.492370 -10.037937 -2.666208 23.772058 -9.281617 0.000000 0.000000 0.000000 
-7.499743 128.762894 -8.576050 0.000000 0.000000 0.000000 -24.274644 -26.513049 2.498594 -77.934788 -3.590396 26.322373 121.674820 -13.018256 1.637676 44.294282 -18.457980 -19.603780 0.000000 0.000000 0.000000 -17.602975 -2.731970 -27.792830 -55.781694 8.768027 -38.996733 112.826782 23.472613 0.079336 19.998335 19.200867 41.844150 0.000000 0.000000 0.000000 5.223100 -2.647836 0.234029 8.985646 0.698543 -6.780657 24.231747 5.922850 1.727040 12.136940 2.860061 2.049258 0.000000 0.000000 0.000000 6.149714 1.376336 1.080084 2.492992 0.835870 0.821007 0.000000 0.000000 0.000000 5.840490 2.281699 1.662761 -0.263400 -2.999023 8.037084 -25.301732 21.470066 0.878181 0.655226 7.867084 5.616152 0.000000 0.000000 0.000000 6.453918 -1.087586 -2.718646 4.040501 3.342788 -19.497518 -19.182359 -3.418340 -10.232975 -2.322331 22.461135 -9.597693 0.000000 0.000000 0.000000 
-7.554366 126.799446 -8.079529 0.000000 0.000000 0.000000 -24.032654 -24.729135 3.368845 -77.287436 -3.576904 26.414712 119.616584 -12.216983 1.353332 43.932320 -17.429840 -18.706041 0.000000 0.000000 0.000000 -16.049973 -2.678171 -25.699678 -54.145522 7.815564 -37.811217 110.323469 23.293172 0.435590 18.663917 18.531010 41.483069 0.000000 0.000000 0.000000 5.301234 -2.590827 0.328516 8.255348 0.779155 -6.279250 23.608180 5.895217 1.431587 11.728684 2.884162 1.899866 0.000000 0.000000 0.000000 6.122406 1.456677 1.098091 2.427576 0.842311 0.806947 0.000000 0.000000 0.000000 5.642555 2.333135 1.714945 -0.428153 -2.729272 7.835170 -24.989960 22.346038 1.678787 0.631961 8.307323 6.009550 0.000000 0.000000 0.000000 6.442172 -0.973237 -2.674895 4.012124 3.521579 -18.965851 -18.111210 -4.369717 -10.105121 -1.968845 21.424058 -9.850649 0.000000 0.000000 0.000000 
-7.653627 124.481293 -7.689209 0.000000 0.000000 0.000000 -23.804934 -22.820234 4.166317 -76.551872 -3.511020 26.445577 116.817600 -11.448644 0.957889 42.983091 -16.306564 -17.982215 0.000000 0.000000 0.000000 -14.045916 -1.459023 -23.511939 -52.117236 7.005209 -36.510390 107.616618 22.991330 0.723004 17.299435 17.836904 40.888856 0.000000 0.000000 0.000000 5.359141 -2.449664 0.435385 7.618853 1.055399 -5.745413 22.886376 5.851993 1.143205 11.247552 2.901248 1.756045 0.000000 0.000000 0.000000 6.079157 1.523715 1.103896 2.348822 0.851215 0.784004 0.000000 0.000000 0.000000 5.398587 2.368708 1.758724 -0.601440 -2.399952 7.548088 -24.733583 23.201809 2.002971 0.542828 8.522271 6.273133 0.000000 0.000000 0.000000 6.420385 -0.871711 -2.609182 3.983352 3.654158 -18.260021 -17.034852 -5.431922 -9.487529 -1.638685 20.557090 -9.958565 0.000000 0.000000 0.000000 
-7.728961 121.846336 -7.505684 0.000000 0.000000 0.000000 -23.566147 -21.484753 4.750022 -75.809526 -3.476531 26.411915 113.709659 -10.663945 0.527378 41.701638 -15.087452 -17.310423 0.000000 0.000000 0.000000 -12.044132 0.466908 -21.046453 -50.008268 6.240220 -34.835566 105.156746 22.569971 0.851035 16.125371 17.212773 40.061996 0.000000 0.000000 0.000000 5.322167 -2.428623 0.527043 6.949692 1.335067 -5.331220 22.170739 5.740527 0.885794 10.752433 2.887031 1.628664 0.000000 0.000000 0.000000 6.061208 1.569585 1.112833 2.275505 0.861656 0.761224 0.000000 0.000000 0.000000 5.135063 2.395606 1.791596 -0.769981 -1.978583 7.186907 -24.361550 24.082544 1.743187 0.451619 8.564316 6.384098 0.000000 0.000000 0.000000 6.303223 -0.755092 -2.488780 3.871914 3.875748 -17.240400 -15.965642 -6.728168 -8.567098 -1.339234 19.686480 -9.981636 0.000000 0.000000 0.000000 
-7.692598 119.116150 -7.047401 0.000000 0.000000 0.000000 -23.132893 -20.444192 5.037901 -74.898686 -3.327462 26.232817 110.272113 -9.767469 -0.007548 40.304055 -13.693841 -16.670310 0.000000 0.000000 0.000000 -10.400416 2.515023 -18.315197 -48.052136 5.464371 -32.710719 102.286010 21.911442 0.937589 14.982227 16.521246 38.889997 0.000000 0.000000 0.000000 5.232008 -2.394073 0.616511 6.311114 1.872610 -4.892700 21.566145 5.567477 0.641029 10.305844 2.846368 1.506977 0.000000 0.000000 0.000000 6.018931 1.590885 1.110156 2.181274 0.867298 0.733487 0.000000 0.000000 0.000000 4.870330 2.424325 1.798572 -0.923422 -1.429223 6.710100 -23.734260 25.021189 0.712803 0.380213 8.408820 6.276500 0.000000 0.000000 0.000000 6.147630 -0.647399 -2.365360 3.715470 4.076995 -16.131254 -14.978403 -8.293038 -7.319292 -1.109923 18.762871 -9.892651 0.000000 0.000000 0.000000 
-7.650585 116.308456 -6.525501 0.000000 0.000000 0.000000 -22.158853 -18.506186 5.313822 -73.465276 -2.818050 26.018607 106.348907 -8.646999 -0.770753 38.846841 -11.974041 -16.134063 0.000000 0.000000 0.000000 -8.440041 4.530415 -15.506971 -45.452392 4.539831 -30.368578 96.813581 20.069819 1.516978 13.482466 14.795815 36.581592 0.000000 0.000000 0.000000 5.139654 -2.221594 0.712228 5.734726 2.694514 -4.489086 21.086546 5.319619 0.389113 9.916489 2.771644 1.377849 0.000000 0.000000 0.000000 5.978823 1.571701 1.067255 2.077694 0.861232 0.685173 0.000000 0.000000 0.000000 4.618415 2.470859 1.769047 -1.052683 -0.695058 6.095242 -22.715399 25.938999 -1.153365 0.363454 8.032899 5.933531 0.000000 0.000000 0.000000 5.977892 -0.586393 -2.224037 3.508554 4.120225 -14.910571 -14.026333 -10.311432 -5.635733 -0.966107 17.563061 -9.631601 0.000000 0.000000 0.000000 
-7.662661 113.261612 -6.081810 0.000000 0.000000 0.000000 -21.138380 -16.361076 5.310048 -71.915519 -2.104741 25.624525 101.963564 -7.468641 -1.561011 37.029232 -10.167516 -15.694620 0.000000 0.000000 0.000000 -6.205501 6.792825 -12.977822 -42.315942 3.686981 -28.078196 90.959234 17.985300 1.848091 11.848646 13.026859 33.890169 0.000000 0.000000 0.000000 4.923349 -2.034756 0.796716 4.843651 3.588071 -4.276842 20.595708 4.995384 0.113766 9.522302 2.660881 1.228743 0.000000 0.000000 0.000000 5.956532 1.529547 0.946711 1.980640 0.853487 0.598928 0.000000 0.000000 0.000000 4.409294 2.540911 1.692661 -1.134396 0.232789 5.322805 -21.341490 26.876052 -3.781411 0.393688 7.536229 5.376729 0.000000 0.000000 0.000000 5.790350 -0.560896 -2.073902 3.260032 4.053075 -13.626789 -12.981977 -12.666576 -3.541804 -0.849582 16.183829 -9.227684 0.000000 0.000000 0.000000 
-7.738527 110.134384 -5.638561 0.000000 0.000000 0.000000 -18.796933 -14.604768 3.631852 -69.024847 -0.364063 24.047752 96.462065 -6.368026 -2.417690 34.113271 -8.331456 -15.585962 0.000000 0.000000 0.000000 -4.299063 7.957787 -11.051752 -39.279677 2.855948 -26.165884 84.130206 15.881426 2.104684 9.209716 10.990569 31.112816 0.000000 0.000000 0.000000 4.702649 -1.870415 0.923235 3.894515 4.599767 -4.010013 20.111267 4.616600 -0.166140 9.133437 2.520140 1.076081 0.000000 0.000000 0.000000 5.904201 1.464902 0.751083 1.864301 0.842806 0.478719 0.000000 0.000000 0.000000 4.043230 2.615405 1.552850 -1.349792 1.254851 4.313679 -19.786693 27.788604 -6.940587 0.403685 6.969977 4.675919 0.000000 0.000000 0.000000 5.609118 -0.582632 -1.934330 2.993978 3.839184 -12.384449 -12.026419 -15.081140 -0.843297 -0.840714 14.844947 -8.571710 0.000000 0.000000 0.000000 
